<?xml version="1.0" encoding="UTF-8"?>
<svg id="Layer_1" xmlns="http://www.w3.org/2000/svg" version="1.1" viewBox="0 0 64 64">
  <!-- Generator: Adobe Illustrator 29.5.1, SVG Export Plug-In . SVG Version: 2.1.0 Build 141)  -->
  <defs>
    <style>
      .st0 {
        fill: none;
        stroke: #001d3d;
        stroke-linecap: round;
        stroke-linejoin: round;
        stroke-width: 2px;
      }
    </style>
  </defs>
  <path class="st0" d="M49.2,48.1v-6.6h-3.7c-.3-1.4-.9-2.8-1.6-4l2.6-2.6-4.7-4.7-2.6,2.6c-1.2-.7-2.6-1.3-4-1.6v-3.7h-6.6v3.7c-1.2.3-2.3.7-3.3,1.2s-.9.2-1.3-.2l-2-2-4.7,4.7,2,2c.3.3.4.8.2,1.3-.5,1-1,2.1-1.2,3.3h-3.7v6.6h3.7c.3,1.2.7,2.3,1.2,3.3s.2.9-.2,1.3l-2,2,4.7,4.7,2.6-2.6c1,.6,2.1,1.1,3.2,1.4s.8.5.8,1v2.9h6.6v-3.7c1.4-.3,2.8-.9,4-1.6l2.6,2.6,4.7-4.7-2.6-2.6c.7-1.2,1.3-2.6,1.6-4h3.7Z"/>
  <circle class="st0" cx="32" cy="44.8" r="5.9"/>
  <path class="st0" d="M62.1,14.5v-3.8h-2.1c-.2-.8-.5-1.6-.9-2.3l1.5-1.5-2.7-2.7-1.5,1.5c-.7-.4-1.5-.7-2.3-.9v-2.1h-3.8v2.1c-.8.2-1.6.5-2.3.9l-1.5-1.5-2.7,2.7,1.5,1.5c-.4.7-.7,1.5-.9,2.3h-2.1v3.8h2.1c.2.8.5,1.6.9,2.3l-1.5,1.5,2.7,2.7,1.5-1.5c.7.4,1.5.7,2.3.9v2.1h3.8v-2.1c.8-.2,1.6-.5,2.3-.9l1.5,1.5,2.7-2.7-1.5-1.5c.4-.7.7-1.5.9-2.3h2.1Z"/>
  <circle class="st0" cx="52.1" cy="12.6" r="3.4"/>
  <path class="st0" d="M21.9,17.6v-3.8h-2.1c-.2-.8-.5-1.6-.9-2.3l1.5-1.5-2.7-2.7-1.5,1.5c-.7-.4-1.5-.7-2.3-.9v-2.1h-3.8v2.1c-.8.2-1.6.5-2.3.9l-1.5-1.5-2.7,2.7,1.5,1.5c-.4.7-.7,1.5-.9,2.3h-2.1v3.8h2.1c.2.8.5,1.6.9,2.3l-1.5,1.5,2.7,2.7,1.5-1.5c.7.4,1.5.7,2.3.9v2.1h3.8v-2.1c.8-.2,1.6-.5,2.3-.9l1.5,1.5,2.7-2.7-1.5-1.5c.4-.7.7-1.5.9-2.3h2.1Z"/>
  <circle class="st0" cx="11.9" cy="15.7" r="3.4"/>
</svg>