<?xml version="1.0" encoding="UTF-8"?>
<svg id="Layer_1" xmlns="http://www.w3.org/2000/svg" version="1.1" viewBox="0 0 64 64">
  <!-- Generator: Adobe Illustrator 29.5.1, SVG Export Plug-In . SVG Version: 2.1.0 Build 141)  -->
  <defs>
    <style>
      .st0 {
        fill: none;
        stroke: #001d3d;
        stroke-linecap: round;
        stroke-linejoin: round;
        stroke-width: 2px;
      }
    </style>
  </defs>
  <path class="st0" d="M56.6,10.6v46.3c0,2.8-2.3,5.1-5.1,5.1H12.5c-2.8,0-5.1-2.3-5.1-5.1V10.6c0-2.8,2.3-5.1,5.1-5.1h6c0,.3-.1.7-.1,1v1.1c0,.8.2,1.6.6,2.2.8,1.4,2.2,2.3,3.9,2.3h18.3c1.7,0,3.2-.9,3.9-2.3.4-.7.6-1.4.6-2.2v-1.1c0-.3,0-.7-.1-1h6c2.8,0,5.1,2.3,5.1,5.1Z"/>
  <path class="st0" d="M52.8,14.9v37.6c0,2.8-2.3,5.1-5.1,5.1h-31.5c-2.8,0-5.1-2.3-5.1-5.1V14.9c0-2.8,2.3-5.1,5.1-5.1h2.6c.8,1.4,2.2,2.3,3.9,2.3h18.3c1.7,0,3.2-.9,3.9-2.3h2.6c2.8,0,5.1,2.3,5.1,5.1Z"/>
  <path class="st0" d="M45.7,6.5v1.1c0,.8-.2,1.6-.6,2.2-.8,1.4-2.2,2.3-3.9,2.3h-18.3c-1.7,0-3.2-.9-3.9-2.3-.4-.7-.6-1.4-.6-2.2v-1.1c0-.3,0-.7.1-1,.5-2,2.3-3.5,4.4-3.5h18.3c2.1,0,3.9,1.5,4.4,3.5,0,.3.1.7.1,1Z"/>
</svg>