<?xml version="1.0" encoding="UTF-8"?>
<svg id="_x35_._Car_chasiss" xmlns="http://www.w3.org/2000/svg" version="1.1" viewBox="0 0 64 64">
  <!-- Generator: Adobe Illustrator 30.0.0, SVG Export Plug-In . SVG Version: 2.1.1 Build 123)  -->
  <defs>
    <style>
      .st0 {
        fill-rule: evenodd;
      }

      .st0, .st1 {
        fill: none;
        stroke: #010101;
        stroke-linecap: round;
        stroke-linejoin: round;
        stroke-width: 1.9px;
      }
    </style>
  </defs>
  <polygon class="st0" points="28 6 36 6 36 28.4 32 31 28 28.4 28 6"/>
  <circle class="st1" cx="32" cy="53.1" r="4" transform="translate(-5.1 3.4) rotate(-5.7)"/>
  <path class="st0" d="M30,49.6v-19.9M34,29.7v19.9"/>
  <g>
    <g>
      <rect class="st1" x="8.1" y="2.8" width="9.2" height="16.1" rx="2.1" ry="2.1"/>
      <g>
        <line class="st1" x1="8.1" y1="8.4" x2="10.8" y2="6.6"/>
        <line class="st1" x1="8.1" y1="15.2" x2="10.8" y2="13.3"/>
      </g>
      <g>
        <line class="st1" x1="17.3" y1="8.4" x2="14.6" y2="6.6"/>
        <line class="st1" x1="17.3" y1="15.2" x2="14.6" y2="13.3"/>
      </g>
      <rect class="st1" x="17.3" y="6.7" width="3.4" height="8.3"/>
      <rect class="st1" x="46.7" y="2.8" width="9.2" height="16.1" rx="2.1" ry="2.1"/>
      <g>
        <line class="st1" x1="55.9" y1="8.4" x2="53.2" y2="6.6"/>
        <line class="st1" x1="55.9" y1="15.2" x2="53.2" y2="13.3"/>
      </g>
      <g>
        <line class="st1" x1="46.7" y1="8.4" x2="49.4" y2="6.6"/>
        <line class="st1" x1="46.7" y1="15.2" x2="49.4" y2="13.3"/>
      </g>
      <rect class="st1" x="43.2" y="6.7" width="3.4" height="8.3"/>
    </g>
    <path class="st0" d="M28,12.9h-7.2v-4h7.2M36,8.9h7.2v4h-7.2"/>
  </g>
  <g>
    <g>
      <rect class="st1" x="8.1" y="45.1" width="9.2" height="16.1" rx="2.1" ry="2.1"/>
      <g>
        <line class="st1" x1="8.1" y1="50.7" x2="10.8" y2="48.8"/>
        <line class="st1" x1="8.1" y1="57.4" x2="10.8" y2="55.6"/>
      </g>
      <g>
        <line class="st1" x1="17.3" y1="50.7" x2="14.6" y2="48.8"/>
        <line class="st1" x1="17.3" y1="57.4" x2="14.6" y2="55.6"/>
      </g>
      <rect class="st1" x="17.3" y="49" width="3.4" height="8.3"/>
      <rect class="st1" x="46.7" y="45.1" width="9.2" height="16.1" rx="2.1" ry="2.1"/>
      <g>
        <line class="st1" x1="55.9" y1="50.7" x2="53.2" y2="48.8"/>
        <line class="st1" x1="55.9" y1="57.4" x2="53.2" y2="55.6"/>
      </g>
      <g>
        <line class="st1" x1="46.7" y1="50.7" x2="49.4" y2="48.8"/>
        <line class="st1" x1="46.7" y1="57.4" x2="49.4" y2="55.6"/>
      </g>
      <rect class="st1" x="43.2" y="49" width="3.4" height="8.3"/>
    </g>
    <path class="st0" d="M28.5,55.1h-7.8v-4h7.8M35.5,51.1h7.8v4h-7.8"/>
  </g>
</svg>