<?xml version="1.0" encoding="UTF-8"?>
<svg id="Layer_2" data-name="Layer 2" xmlns="http://www.w3.org/2000/svg" viewBox="0 0 282.93 81.12">
  <defs>
    <style>
      .cls-1 {
        font-family: Montserrat-SemiBoldItalic, Montserrat;
        font-size: 16.49px;
        font-style: italic;
        font-variation-settings: 'wght' 600;
        font-weight: 600;
      }

      .cls-1, .cls-2 {
        fill: #d4ff00;
      }

      .cls-3 {
        letter-spacing: .02em;
      }

      .cls-4 {
        letter-spacing: .02em;
      }

      .cls-5 {
        letter-spacing: .02em;
      }

      .cls-6 {
        letter-spacing: .02em;
      }

      .cls-7 {
        letter-spacing: 0em;
      }

      .cls-8 {
        letter-spacing: .01em;
      }

      .cls-9 {
        letter-spacing: 0em;
      }
    </style>
  </defs>
  <g id="Livello_1" data-name="Livello 1">
    <g>
      <g>
        <path class="cls-2" d="M61.6,45.54c-.61,1.83-1.89,3.29-3.83,4.39-1.76.97-3.62,1.46-5.57,1.46h-14.31c-1.96,0-3.31-.51-4.05-1.53-.49-.66-.94-2.1-1.36-4.31l-3.05-15.93c.97-.16,3.29-.86,6.96-2.08,3.56-1.16,5.81-1.97,6.76-2.41,5.66-2.51,9.01-5.65,10.04-9.42,1.19-4.33-1.37-6.5-7.7-6.5H7.1L15.38,0h38.01c13.66,0,19.32,4.21,16.96,12.64-2,7.13-10.79,13.37-26.36,18.7l2.83,14.21h14.78ZM38.99,13.91L15.29,51.39H1.91L25.34,13.91h13.65Z"/>
        <path class="cls-2" d="M109.71,45.54c-2.34,3.9-5.95,5.85-10.83,5.85h-14.09c-4.01,0-5.66-1.27-4.94-3.8-3.57,3.02-7.31,4.53-11.25,4.53-2.89,0-5-.88-6.32-2.63-1.32-1.75-1.59-4.04-.8-6.87,1.42-5.09,4.53-9.11,9.35-12.06,4.37-2.67,9.23-4.01,14.57-4.01h21.38l-12.54,18.99h15.46ZM89.46,32.39h-8.26l-5.03,8.51c-.3.54-.52,1.03-.64,1.47-.6,2.12,1.21,3.17,5.43,3.17l8.5-13.15Z"/>
        <path class="cls-2" d="M156.21,45.54c-1.13,1.9-2.73,3.37-4.78,4.42-1.88.95-3.87,1.43-5.98,1.43h-22.37c-4.27,0-7.64-.71-10.12-2.12-3.15-1.78-4.19-4.46-3.14-8.04.12-.39.26-.79.43-1.21,1.78-4.36,5.1-7.76,9.96-10.22,4.29-2.17,8.92-3.25,13.89-3.25h9.43c2.12,0,3.74.66,4.83,1.97,1.1,1.31,1.36,2.92.77,4.82-.58,1.92-1.84,3.55-3.75,4.9-1.91,1.33-3.91,2.01-6,2.01s-3.71-.68-4.78-2.03c-1.07-1.35-1.31-3-.7-4.95l.27-.88h-4.52l-5.32,8.08c-.45.68-.76,1.3-.93,1.86-.64,2.14.77,3.21,4.21,3.21h28.6Z"/>
        <path class="cls-2" d="M184.06,45.54c-1.33,2.15-3.17,3.73-5.53,4.75-1.69.73-3.39,1.1-5.1,1.1h-14.68c-3.54,0-4.86-1.46-3.96-4.38.25-.83.7-1.72,1.34-2.67l12-17.79h13.59l-12.86,18.99h15.2ZM192.11,11.58c-.77,2.44-2.39,4.5-4.87,6.21-2.48,1.7-5.08,2.56-7.8,2.56s-4.86-.85-6.28-2.56c-1.41-1.71-1.74-3.77-.99-6.21.75-2.41,2.36-4.47,4.84-6.17,2.47-1.71,5.11-2.56,7.9-2.56s4.81.85,6.23,2.56c1.41,1.7,1.73,3.76.96,6.17Z"/>
        <path class="cls-2" d="M235.06,45.54c-1.35,2.15-3.31,3.73-5.85,4.75-1.8.73-3.6,1.1-5.39,1.1h-14.83c-3.39,0-4.73-1.1-4.02-3.29.23-.73.68-1.58,1.35-2.56l5.38-7.85-16.24,10.63c-3.66,2.05-6.45,3.07-8.38,3.07h-6.84l16.81-24.84h13.51l-7.99,11.69,14.35-9.13c3.89-2.46,7.64-3.64,11.23-3.54,2.41.1,3.22,1.37,2.41,3.8-.3.9-.83,1.91-1.59,3.03l-9.14,13.15h15.23Z"/>
        <path class="cls-2" d="M282.93,45.54c-2.49,3.9-6.84,5.85-13.06,5.85h-6.61c-4.21,5.89-7.85,10.15-10.91,12.78-4.49,3.85-9.17,5.77-14.05,5.77-2.76,0-4.7-.76-5.83-2.28-1.13-1.52-1.25-3.63-.35-6.34,1.76-5.28,4.47-8.69,8.13-10.22-2.15-.54-3.72-1.6-4.71-3.18-1.16-1.8-1.32-3.98-.47-6.54.33-1,.84-2.05,1.53-3.14,2.39-3.97,5.74-6.96,10.06-8.99,3.79-1.8,7.94-2.7,12.44-2.7h21.42l-13.35,18.99h15.78ZM249.54,52.37c-1.61,0-3.42.91-5.42,2.72-2.01,1.81-3.31,3.62-3.92,5.42-.54,1.61-.27,2.9.81,3.87l8.53-12.02ZM262.87,32.39h-7.96l-6.11,9.28c-.36.56-.62,1.07-.77,1.53-.7,2.07.49,3.1,3.57,3.1.2,0,.49-.01.89-.04.39-.02.69-.03.89-.03l9.5-13.84Z"/>
      </g>
      <text class="cls-1" transform="translate(.96 73.65)"><tspan class="cls-7" x="0" y="0">A</tspan><tspan class="cls-9" x="12.45" y="0">U</tspan><tspan class="cls-8" x="25.25" y="0">T</tspan><tspan class="cls-4" x="35.35" y="0">OS</tspan><tspan class="cls-6" x="60.3" y="0">C</tspan><tspan class="cls-4" x="72.62" y="0">UO</tspan><tspan class="cls-3" x="99.88" y="0">L</tspan><tspan class="cls-5" x="110.12" y="0">A &amp; </tspan><tspan class="cls-8" x="144.59" y="0">A</tspan><tspan class="cls-5" x="157.13" y="0">GENZIA</tspan></text>
    </g>
  </g>
</svg>