<?xml version="1.0" encoding="UTF-8"?>
<svg id="Layer_2" data-name="Layer 2" xmlns="http://www.w3.org/2000/svg" viewBox="0 0 99.65 76.29">
  <defs>
    <style>
      .cls-1 {
        fill: #12135d;
        stroke: #12135d;
        stroke-linejoin: round;
        stroke-width: 8px;
      }

      .cls-2 {
        fill: #d4ff00;
      }
    </style>
  </defs>
  <g id="Livello_1" data-name="Livello 1">
    <g>
      <path class="cls-1" d="M83.32,64.52c-.81,2.43-2.51,4.37-5.09,5.83-2.33,1.29-4.81,1.94-7.41,1.94h-19.02c-2.61,0-4.39-.68-5.38-2.04-.65-.88-1.25-2.79-1.81-5.73l-4.06-21.16c1.29-.22,4.37-1.14,9.25-2.77,4.73-1.55,7.73-2.62,8.98-3.2,7.52-3.33,11.97-7.51,13.34-12.52,1.58-5.75-1.82-8.64-10.23-8.64H10.89l11.01-12.23h50.52c18.16,0,25.67,5.6,22.54,16.8-2.65,9.48-14.34,17.76-35.03,24.85l3.76,18.88h19.64ZM53.27,22.49l-31.49,49.8H4l31.14-49.8h18.13Z"/>
      <path class="cls-2" d="M83.32,64.52c-.81,2.43-2.51,4.37-5.09,5.83-2.33,1.29-4.81,1.94-7.41,1.94h-19.02c-2.61,0-4.39-.68-5.38-2.04-.65-.88-1.25-2.79-1.81-5.73l-4.06-21.16c1.29-.22,4.37-1.14,9.25-2.77,4.73-1.55,7.73-2.62,8.98-3.2,7.52-3.33,11.97-7.51,13.34-12.52,1.58-5.75-1.82-8.64-10.23-8.64H10.89l11.01-12.23h50.52c18.16,0,25.67,5.6,22.54,16.8-2.65,9.48-14.34,17.76-35.03,24.85l3.76,18.88h19.64ZM53.27,22.49l-31.49,49.8H4l31.14-49.8h18.13Z"/>
    </g>
  </g>
</svg>