<?xml version="1.0" encoding="UTF-8"?>
<svg id="_x31_._Car_Pedals" xmlns="http://www.w3.org/2000/svg" version="1.1" viewBox="0 0 64 64">
  <!-- Generator: Adobe Illustrator 29.8.2, SVG Export Plug-In . SVG Version: 2.1.1 Build 3)  -->
  <defs>
    <style>
      .st0, .st1 {
        fill: none;
        stroke: #010101;
        stroke-linecap: round;
        stroke-linejoin: round;
        stroke-width: 1.9px;
      }

      .st1 {
        fill-rule: evenodd;
      }
    </style>
  </defs>
  <rect class="st0" x="7.1" y="10.3" width="49.8" height="6.4"/>
  <g>
    <rect class="st0" x="10.7" y="16.7" width="5" height="11.9"/>
    <rect class="st0" x="31.2" y="16.7" width="5" height="11.9"/>
    <polygon class="st1" points="8.9 28.6 17.5 28.6 20.7 31.8 20.7 42.3 17.5 45.5 8.9 45.5 5.7 42.3 5.7 31.8 8.9 28.6"/>
    <g>
      <line class="st0" x1="9.4" y1="34.8" x2="17" y2="34.8"/>
      <line class="st0" x1="9.4" y1="39.3" x2="17" y2="39.3"/>
    </g>
    <polygon class="st1" points="29.4 28.6 38.1 28.6 41.3 31.8 41.3 42.3 38.1 45.5 29.4 45.5 26.2 42.3 26.2 31.8 29.4 28.6"/>
    <g>
      <line class="st0" x1="29.9" y1="34.8" x2="37.5" y2="34.8"/>
      <line class="st0" x1="29.9" y1="39.3" x2="37.5" y2="39.3"/>
    </g>
    <path class="st1" d="M46.1,28.6h12.3v25.1h-3.6c-1.7,0-3.1-1.4-3.1-3.1v-7.8h-5.5v-14.1Z"/>
    <g>
      <line class="st0" x1="49.6" y1="32.1" x2="54.8" y2="32.1"/>
      <line class="st0" x1="49.6" y1="36.6" x2="54.8" y2="36.6"/>
    </g>
    <rect class="st0" x="49.7" y="16.7" width="5" height="11.9"/>
  </g>
</svg>