<?xml version="1.0" encoding="UTF-8"?>
<svg id="_x31_2._Light" xmlns="http://www.w3.org/2000/svg" version="1.1" viewBox="0 0 64 64">
  <!-- Generator: Adobe Illustrator 29.8.2, SVG Export Plug-In . SVG Version: 2.1.1 Build 3)  -->
  <defs>
    <style>
      .st0, .st1 {
        fill: none;
        stroke: #010101;
        stroke-linecap: round;
        stroke-linejoin: round;
        stroke-width: 1.9px;
      }

      .st1 {
        fill-rule: evenodd;
      }
    </style>
  </defs>
  <rect class="st0" x="8.1" y="9" width="47.7" height="6.1"/>
  <g>
    <rect class="st0" x="8.7" y="24.1" width="15.2" height="30.9" rx="4.8" ry="4.8"/>
    <path class="st1" d="M16.3,42.6c1.7,0,3.1-1.4,3.1-3.1s-1.4-3.1-3.1-3.1-3.1,1.4-3.1,3.1,1.4,3.1,3.1,3.1Z"/>
    <path class="st1" d="M16.3,33.2c1.7,0,3.1-1.4,3.1-3.1s-1.4-3.1-3.1-3.1-3.1,1.4-3.1,3.1,1.4,3.1,3.1,3.1Z"/>
    <path class="st1" d="M16.3,52.1c1.7,0,3.1-1.4,3.1-3.1s-1.4-3.1-3.1-3.1-3.1,1.4-3.1,3.1,1.4,3.1,3.1,3.1Z"/>
    <path class="st1" d="M8.7,32.3h-1.4c-2.5,0-4.5-2-4.5-4.5h5.9v4.5Z"/>
    <path class="st1" d="M8.7,41.8h-1.4c-2.5,0-4.5-2-4.5-4.5h5.9v4.5Z"/>
    <path class="st1" d="M8.7,51.2h-1.4c-2.5,0-4.5-2-4.5-4.5h5.9v4.5Z"/>
    <path class="st1" d="M23.9,32.3h1.4c2.5,0,4.5-2,4.5-4.5h-5.9v4.5Z"/>
    <path class="st1" d="M23.9,41.8h1.4c2.5,0,4.5-2,4.5-4.5h-5.9v4.5Z"/>
    <path class="st1" d="M23.9,51.2h1.4c2.5,0,4.5-2,4.5-4.5h-5.9v4.5Z"/>
    <rect class="st0" x="14.1" y="15.1" width="4.4" height="9"/>
    <rect class="st0" x="40.1" y="24.1" width="15.2" height="30.9" rx="4.8" ry="4.8"/>
    <path class="st1" d="M47.7,42.6c1.7,0,3.1-1.4,3.1-3.1s-1.4-3.1-3.1-3.1-3.1,1.4-3.1,3.1,1.4,3.1,3.1,3.1Z"/>
    <path class="st1" d="M47.7,33.2c1.7,0,3.1-1.4,3.1-3.1s-1.4-3.1-3.1-3.1-3.1,1.4-3.1,3.1,1.4,3.1,3.1,3.1Z"/>
    <path class="st1" d="M47.7,52.1c1.7,0,3.1-1.4,3.1-3.1s-1.4-3.1-3.1-3.1-3.1,1.4-3.1,3.1,1.4,3.1,3.1,3.1Z"/>
    <path class="st1" d="M40.1,32.3h-1.4c-2.5,0-4.5-2-4.5-4.5h5.9v4.5Z"/>
    <path class="st1" d="M40.1,41.8h-1.4c-2.5,0-4.5-2-4.5-4.5h5.9v4.5Z"/>
    <path class="st1" d="M40.1,51.2h-1.4c-2.5,0-4.5-2-4.5-4.5h5.9v4.5Z"/>
    <path class="st1" d="M55.3,32.3h1.4c2.5,0,4.5-2,4.5-4.5h-5.9v4.5Z"/>
    <path class="st1" d="M55.3,41.8h1.4c2.5,0,4.5-2,4.5-4.5h-5.9v4.5Z"/>
    <path class="st1" d="M55.3,51.2h1.4c2.5,0,4.5-2,4.5-4.5h-5.9v4.5Z"/>
    <rect class="st0" x="45.5" y="15.1" width="4.4" height="9"/>
  </g>
</svg>