<?xml version="1.0" encoding="UTF-8"?>
<svg id="_x31_3._Map" xmlns="http://www.w3.org/2000/svg" version="1.1" viewBox="0 0 64 64">
  <!-- Generator: Adobe Illustrator 29.8.2, SVG Export Plug-In . SVG Version: 2.1.1 Build 3)  -->
  <defs>
    <style>
      .st0, .st1 {
        stroke-linecap: round;
        stroke-linejoin: round;
      }

      .st0, .st1, .st2 {
        fill: none;
        stroke: #010101;
        stroke-width: 1.9px;
      }

      .st1, .st2 {
        fill-rule: evenodd;
      }

      .st2 {
        stroke-miterlimit: 2.6;
      }
    </style>
  </defs>
  <path class="st2" d="M19.1,28.6c-4-1.1-7.7-2.2-9.1-1.4-.7.4-1.4,1.3-1.9,2.3-.4.9-.7,1.8-.8,2.7,0,.8,0,1.5.3,2,.2.3.4.5.8.7,1.3.7,2.4,1.1,3.3,1.4,3.1,1.2,4.7,1.8,4.8,5.2,0,.5,0,1,0,1.5,0,1.4,0,2.5,1,3,1.5.6,11,.9,19.8.3M42.1,46c4.7-.5,8.3-1.1,8.6-1.8.4-1,0-2.5-.3-4.1-.9-4.1-1.8-8.5,4.3-12.5,1.3-.9,1.9-1.8,2-2.5,0-.4,0-.8-.3-1.1-.3-.5-.9-.9-1.6-1.3-2.4-1.2-6.3-1.4-11.2.5-2.3.9-4.2,2.3-5.9,3.6-3.3,2.5-6.2,4.7-11.3,3.8-.6-.1-1.1-.2-1.7-.3M26.5,25.9c.2,0,.4,0,.6.1,3.2.6,5.3-1.1,7.8-2.9,2-1.5,4.1-3.1,7-4.2,6.2-2.3,11.5-2,14.8-.3,1.4.7,2.6,1.7,3.3,2.8.8,1.2,1.2,2.6,1.1,4-.2,2.1-1.4,4.2-4,5.9-3.5,2.4-2.9,5.2-2.4,7.9.5,2.3,1,4.5,0,6.8-1.1,2.5-6.3,3.9-12.7,4.6M37.3,50.9c-9.3.5-19.6,0-21.4-.7-4-1.6-3.9-4.2-3.9-7.2,0-.4,0-.9,0-1.3,0-.4-.7-.7-1.9-1.1-1-.4-2.3-.9-3.8-1.6-1.1-.6-2-1.4-2.6-2.4-.8-1.4-1.1-3-.9-4.6.1-1.5.6-3,1.3-4.4.9-1.7,2.2-3.2,3.6-4.1,2.3-1.4,5.5-1,9.1,0"/>
  <path class="st1" d="M14.9,16.3c0-4.1,3.3-7.3,7.3-7.3s7.3,3.3,7.3,7.3-5.8,15.3-7.3,19c-1.5-3.7-7.3-14.8-7.3-19Z"/>
  <path class="st1" d="M22.2,19c1.6,0,2.9-1.3,2.9-2.9s-1.3-2.9-2.9-2.9-2.9,1.3-2.9,2.9,1.3,2.9,2.9,2.9Z"/>
  <rect class="st0" x="37.3" y="42.2" width="4.8" height="12.9"/>
</svg>