<?xml version="1.0" encoding="UTF-8"?>
<svg id="_x31_4._Podium" xmlns="http://www.w3.org/2000/svg" version="1.1" viewBox="0 0 64 64">
  <!-- Generator: Adobe Illustrator 29.8.2, SVG Export Plug-In . SVG Version: 2.1.1 Build 3)  -->
  <defs>
    <style>
      .st0, .st1 {
        fill: none;
        stroke: #010101;
        stroke-linecap: round;
        stroke-linejoin: round;
        stroke-width: 1.9px;
      }

      .st1 {
        fill-rule: evenodd;
      }
    </style>
  </defs>
  <rect class="st0" x="4.8" y="56.3" width="54.3" height="4.9"/>
  <rect class="st0" x="22.2" y="33.6" width="19.7" height="22.8"/>
  <rect class="st0" x="19.8" y="30.1" width="24.4" height="3.5"/>
  <rect class="st0" x="41.8" y="42.1" width="14.6" height="14.2"/>
  <rect class="st0" x="41.8" y="39" width="16.4" height="3.2"/>
  <rect class="st0" x="7.5" y="47.2" width="14.6" height="9.1"/>
  <rect class="st0" x="5.8" y="44.1" width="16.4" height="3.2"/>
  <g>
    <polyline class="st1" points="29.9 40.6 32.1 39.3 32.1 50.6"/>
    <line class="st0" x1="30" y1="50.6" x2="34.1" y2="50.6"/>
  </g>
  <g>
    <path class="st1" d="M32,26.3c4.5,0,8.1-3.6,8.1-8.1s-3.6-8.1-8.1-8.1-8.1,3.6-8.1,8.1,3.6,8.1,8.1,8.1Z"/>
    <polyline class="st1" points="26 12.7 22.1 2.8 30.1 2.8 33 10.2"/>
    <polyline class="st1" points="38 12.8 41.9 2.8 33.9 2.8 32 7.7"/>
    <polygon class="st1" points="32 13.6 33.2 16.3 36.2 16.7 34 18.7 34.6 21.6 32 20.2 29.4 21.6 29.9 18.7 27.8 16.7 30.7 16.3 32 13.6"/>
  </g>
</svg>