<?xml version="1.0" encoding="UTF-8"?>
<svg id="_x31_8._Steering_Wheel" xmlns="http://www.w3.org/2000/svg" version="1.1" viewBox="0 0 64 64">
  <!-- Generator: Adobe Illustrator 29.8.2, SVG Export Plug-In . SVG Version: 2.1.1 Build 3)  -->
  <defs>
    <style>
      .st0, .st1 {
        fill: none;
        stroke: #010101;
        stroke-linecap: round;
        stroke-linejoin: round;
        stroke-width: 1.9px;
      }

      .st1 {
        fill-rule: evenodd;
      }
    </style>
  </defs>
  <path class="st1" d="M32,39.6c4.2,0,7.6-3.4,7.6-7.6s-3.4-7.6-7.6-7.6-7.6,3.4-7.6,7.6,3.4,7.6,7.6,7.6Z"/>
  <path class="st1" d="M32,43.5c6.3,0,11.5-5.2,11.5-11.5s-5.2-11.5-11.5-11.5-11.5,5.2-11.5,11.5,5.2,11.5,11.5,11.5Z"/>
  <path class="st1" d="M32,56.2c13.4,0,24.2-10.9,24.2-24.2S45.4,7.8,32,7.8,7.8,18.6,7.8,32s10.9,24.2,24.2,24.2Z"/>
  <path class="st1" d="M32,61.2c16.1,0,29.2-13.1,29.2-29.2S48.1,2.8,32,2.8,2.8,15.9,2.8,32s13.1,29.2,29.2,29.2Z"/>
  <line class="st0" x1="11.4" y1="11.4" x2="14.9" y2="14.9"/>
  <line class="st0" x1="49.1" y1="49.1" x2="52.6" y2="52.6"/>
  <line class="st0" x1="11.4" y1="52.6" x2="14.9" y2="49.1"/>
  <line class="st0" x1="49.1" y1="14.9" x2="52.6" y2="11.4"/>
  <path class="st1" d="M8,28.5c3.7,0,10.3-.3,13.9-2M21.9,37.5c-3.6-1.7-10.2-2-13.9-2"/>
  <line class="st0" x1="20.5" y1="32" x2="7.8" y2="32"/>
  <path class="st1" d="M56,28.5c-3.7,0-10.3-.3-13.9-2M42.1,37.5c3.6-1.7,10.2-2,13.9-2"/>
  <line class="st0" x1="43.5" y1="32" x2="56.2" y2="32"/>
  <path class="st1" d="M28.5,56c0-3.7-.3-10.3-2-13.9M37.5,42.1c-1.7,3.6-2,10.2-2,13.9"/>
  <line class="st0" x1="32" y1="43.5" x2="32" y2="56.2"/>
  <g>
    <polyline class="st1" points="31 29.5 32 28.7 32 35.3"/>
    <line class="st0" x1="31" y1="35.3" x2="33" y2="35.3"/>
  </g>
</svg>