<?xml version="1.0" encoding="UTF-8"?>
<svg id="_x32_0._Cone" xmlns="http://www.w3.org/2000/svg" version="1.1" viewBox="0 0 64 64">
  <!-- Generator: Adobe Illustrator 29.8.2, SVG Export Plug-In . SVG Version: 2.1.1 Build 3)  -->
  <defs>
    <style>
      .st0 {
        fill: none;
        fill-rule: evenodd;
        stroke: #010101;
        stroke-linecap: round;
        stroke-linejoin: round;
        stroke-width: 1.9px;
      }
    </style>
  </defs>
  <path class="st0" d="M32,8.2c2.9,0,5.3-1.1,5.3-2.5s-2.4-2.5-5.3-2.5-5.3,1.1-5.3,2.5,2.4,2.5,5.3,2.5Z"/>
  <path class="st0" d="M37.3,5.5l9.9,38.6c-4.2,3-9.5,4.8-15.2,4.8s-10.9-1.8-15.2-4.8L26.7,5.5"/>
  <path class="st0" d="M44.8,34.8c-3.8,2.1-8.1,3.3-12.8,3.3s-9-1.2-12.8-3.3"/>
  <path class="st0" d="M42.4,25.5c-3.2,1.4-6.7,2.1-10.4,2.1s-7.2-.8-10.4-2.1"/>
  <path class="st0" d="M39.9,15.8c-2.5.8-5.2,1.2-7.9,1.2s-5.4-.4-7.9-1.2"/>
  <polyline class="st0" points="45.8 38.6 57.5 45.6 44.7 53.2 32 60.7 19.3 53.2 6.5 45.6 18.2 38.6"/>
</svg>