<?xml version="1.0" encoding="UTF-8"?>
<svg id="_x32_1._Gear_Car" xmlns="http://www.w3.org/2000/svg" version="1.1" viewBox="0 0 64 64">
  <!-- Generator: Adobe Illustrator 29.8.2, SVG Export Plug-In . SVG Version: 2.1.1 Build 3)  -->
  <defs>
    <style>
      .st0, .st1 {
        fill: none;
        stroke: #010101;
        stroke-linecap: round;
        stroke-linejoin: round;
        stroke-width: 1.9px;
      }

      .st1 {
        fill-rule: evenodd;
      }
    </style>
  </defs>
  <rect class="st0" x="17.5" y="55.6" width="29" height="5.6"/>
  <path class="st1" d="M20.8,55.6v-1.6c0-3,2.4-5.4,5.4-5.4h11.6c3,0,5.4,2.4,5.4,5.4v1.6"/>
  <path class="st1" d="M26.4,48.6c0-3.1,2.5-5.6,5.6-5.6s5.6,2.5,5.6,5.6"/>
  <path class="st1" d="M38.4,17.5v7.5c0,2-1.6,3.6-3.6,3.6h-5.7c-2,0-3.6-1.6-3.6-3.6v-14.1h0s0,0,0,0c0-4.4,3.7-8,8.1-8s8.1,3.6,8.1,8.1-1.4,5.2-3.4,6.6Z"/>
  <path class="st1" d="M33.1,6.6c.2,0,.4,0,.6,0,2.4,0,4.4,2,4.4,4.4s0,.6-.1.9"/>
  <polyline class="st1" points="29.9 43.4 29.9 28.6 34.1 28.6 34.1 43.4"/>
</svg>