<?xml version="1.0" encoding="UTF-8"?>
<svg id="_x32_5._Finish" xmlns="http://www.w3.org/2000/svg" version="1.1" viewBox="0 0 64 64">
  <!-- Generator: Adobe Illustrator 29.8.2, SVG Export Plug-In . SVG Version: 2.1.1 Build 3)  -->
  <defs>
    <style>
      .st0, .st1 {
        fill: none;
        stroke: #010101;
        stroke-linecap: round;
        stroke-linejoin: round;
        stroke-width: 1.9px;
      }

      .st1 {
        fill-rule: evenodd;
      }
    </style>
  </defs>
  <g>
    <polyline class="st1" points="8.6 16.7 8.6 7.5 12.7 7.5"/>
    <line class="st0" x1="8.6" y1="11.3" x2="12" y2="11.3"/>
    <line class="st0" x1="17.4" y1="16.7" x2="17.4" y2="7.5"/>
    <line class="st0" x1="33.4" y1="16.7" x2="33.4" y2="7.5"/>
    <polyline class="st1" points="28.8 16.7 28.8 7.5 22 16.7 22 7.5"/>
    <path class="st1" d="M43.9,7.5h-4c-1,0-1.9.8-1.9,1.9v.8c0,1,.8,1.9,1.9,1.9h2.1"/>
    <path class="st1" d="M38.1,16.7h4c1,0,1.9-.8,1.9-1.9v-.8c0-1-.8-1.9-1.9-1.9h-2.1"/>
    <g>
      <line class="st0" x1="48.5" y1="16.7" x2="48.5" y2="7.5"/>
      <line class="st0" x1="55.4" y1="16.7" x2="55.4" y2="7.5"/>
      <line class="st0" x1="48.5" y1="12.1" x2="55.4" y2="12.1"/>
    </g>
  </g>
  <rect class="st0" x="2.8" y="3.4" width="58.4" height="17.5"/>
  <rect class="st0" x="2.8" y="20.9" width="7.9" height="39.7"/>
  <g>
    <line class="st0" x1="10.7" y1="20.9" x2="2.8" y2="27.5"/>
    <line class="st0" x1="10.7" y1="34.1" x2="2.8" y2="27.5"/>
  </g>
  <g>
    <line class="st0" x1="10.7" y1="34.1" x2="2.8" y2="40.7"/>
    <line class="st0" x1="10.7" y1="47.4" x2="2.8" y2="40.7"/>
  </g>
  <g>
    <line class="st0" x1="10.7" y1="47.4" x2="2.8" y2="54"/>
    <line class="st0" x1="10.7" y1="60.6" x2="2.8" y2="54"/>
  </g>
  <rect class="st0" x="53.3" y="20.9" width="7.9" height="39.7"/>
  <g>
    <line class="st0" x1="53.3" y1="20.9" x2="61.2" y2="27.5"/>
    <line class="st0" x1="53.3" y1="34.1" x2="61.2" y2="27.5"/>
  </g>
  <g>
    <line class="st0" x1="53.3" y1="34.1" x2="61.2" y2="40.7"/>
    <line class="st0" x1="53.3" y1="47.4" x2="61.2" y2="40.7"/>
  </g>
  <g>
    <line class="st0" x1="53.3" y1="47.4" x2="61.2" y2="54"/>
    <line class="st0" x1="53.3" y1="60.6" x2="61.2" y2="54"/>
  </g>
  <line class="st0" x1="10.7" y1="60.6" x2="53.3" y2="60.6"/>
  <line class="st0" x1="10.7" y1="53.5" x2="25.2" y2="20.9"/>
  <line class="st0" x1="53.3" y1="53.5" x2="38.8" y2="20.9"/>
  <rect class="st0" x="29.8" y="25.7" width="4.3" height="5.7"/>
  <rect class="st0" x="29.8" y="34.8" width="4.3" height="8"/>
  <rect class="st0" x="29.8" y="46.6" width="4.3" height="10.4"/>
</svg>