<?xml version="1.0" encoding="UTF-8"?>
<svg id="_x36_._Fire" xmlns="http://www.w3.org/2000/svg" version="1.1" viewBox="0 0 64 64">
  <!-- Generator: Adobe Illustrator 29.8.2, SVG Export Plug-In . SVG Version: 2.1.1 Build 3)  -->
  <defs>
    <style>
      .st0, .st1 {
        fill: none;
        stroke: #010101;
        stroke-linecap: round;
        stroke-linejoin: round;
        stroke-width: 1.9px;
      }

      .st1 {
        fill-rule: evenodd;
      }
    </style>
  </defs>
  <path class="st1" d="M40.1,53.4c8.5,0,15.4-6.9,15.4-15.4s-6.9-15.4-15.4-15.4-15.4,6.9-15.4,15.4,6.9,15.4,15.4,15.4Z"/>
  <path class="st1" d="M40.1,59c11.6,0,21.1-9.5,21.1-21.1s-9.5-21.1-21.1-21.1-21.1,9.5-21.1,21.1,9.5,21.1,21.1,21.1Z"/>
  <circle class="st0" cx="40.1" cy="38" r="4.8"/>
  <g>
    <path class="st1" d="M40.1,30.4c1.3,0,2.3-1,2.3-2.3s-1-2.3-2.3-2.3-2.3,1-2.3,2.3,1,2.3,2.3,2.3Z"/>
    <path class="st1" d="M40.1,50.2c1.3,0,2.3-1,2.3-2.3s-1-2.3-2.3-2.3-2.3,1-2.3,2.3,1,2.3,2.3,2.3Z"/>
  </g>
  <path class="st1" d="M27.9,38c0-1.3,1-2.3,2.3-2.3s2.3,1,2.3,2.3-1,2.3-2.3,2.3-2.3-1-2.3-2.3Z"/>
  <path class="st1" d="M47.7,38c0-1.3,1-2.3,2.3-2.3s2.3,1,2.3,2.3-1,2.3-2.3,2.3-2.3-1-2.3-2.3Z"/>
  <line class="st0" x1="32.1" y1="46" x2="34.2" y2="43.9"/>
  <line class="st0" x1="46.1" y1="32" x2="48.2" y2="29.9"/>
  <line class="st0" x1="48.2" y1="46" x2="46.1" y2="43.9"/>
  <line class="st0" x1="34.2" y1="32" x2="32.1" y2="29.9"/>
  <path class="st1" d="M26.7,54.2C1.5,48.9,15.1,35,2.8,29c2.1-2,7.7-2.8,10.5,2.7,6.7-8.7-15.2-11.8-4.6-26.7,1.2,9.7,6,11.7,8.4,10.8,2.6-.9,3.5-5.3-.9-6.7,5.3-6.5,10.9,1,13.5,3,5.6,4.2,12-3.5,14.2,5.2"/>
</svg>