<?xml version="1.0" encoding="UTF-8"?>
<svg id="_x37_._Flag" xmlns="http://www.w3.org/2000/svg" version="1.1" viewBox="0 0 64 64">
  <!-- Generator: Adobe Illustrator 29.8.2, SVG Export Plug-In . SVG Version: 2.1.1 Build 3)  -->
  <defs>
    <style>
      .st0 {
        fill: none;
        fill-rule: evenodd;
        stroke: #010101;
        stroke-linecap: round;
        stroke-linejoin: round;
        stroke-width: 1.9px;
      }
    </style>
  </defs>
  <path class="st0" d="M35.4,30.7c8.8,1.6,7.8,9.9,20.2,5.6l5.6-13.4c-12.7,3.6-10.3-5.5-20.2-5.6l-5.6,13.4Z"/>
  <path class="st0" d="M59.3,27.5c-12.7,3.6-10.3-5.5-20.2-5.6"/>
  <path class="st0" d="M57.2,32.4c-12.7,3.6-10.3-5.5-20.2-5.6"/>
  <path class="st0" d="M54.2,23.6l-5.8,13.9M41,33.2l5.9-14.3"/>
  <polyline class="st0" points="39.2 14.1 23.6 51.4 26.3 52.6 41.9 15.2"/>
  <path class="st0" d="M41.8,11.6c1,.4,1.5,1.6,1.1,2.6-.4,1-1.6,1.5-2.6,1.1-1-.4-1.5-1.6-1.1-2.6.4-1,1.6-1.5,2.6-1.1Z"/>
  <path class="st0" d="M28.6,30.7c-8.8,1.6-7.8,9.9-20.2,5.6l-5.6-13.4c12.7,3.6,10.3-5.5,20.2-5.6l5.6,13.4Z"/>
  <path class="st0" d="M4.7,27.5c12.7,3.6,10.3-5.5,20.2-5.6"/>
  <path class="st0" d="M6.8,32.4c12.7,3.6,10.3-5.5,20.2-5.6"/>
  <path class="st0" d="M9.8,23.6l5.8,13.9M23,33.2l-5.9-14.3"/>
  <path class="st0" d="M24.8,14.1l7.2,17.2M33.6,35.1l6.8,16.4-2.7,1.1-5.7-13.7M30.4,35.1l-8.3-19.9"/>
  <path class="st0" d="M22.2,11.6c-1,.4-1.5,1.6-1.1,2.6.4,1,1.6,1.5,2.6,1.1,1-.4,1.5-1.6,1.1-2.6-.4-1-1.6-1.5-2.6-1.1Z"/>
</svg>