<svg xmlns="http://www.w3.org/2000/svg" baseProfile="basic" viewBox="0 0 32 32"><path d="M16,3c-0.552,0-1,0.448-1,1s0.448,1,1,1s1-0.448,1-1S16.552,3,16,3L16,3z"/><path d="M19,6c-0.552,0-1,0.448-1,1s0.448,1,1,1s1-0.448,1-1S19.552,6,19,6L19,6z"/><path d="M16,6c-0.552,0-1,0.448-1,1s0.448,1,1,1s1-0.448,1-1S16.552,6,16,6L16,6z"/><path d="M13,6c-0.552,0-1,0.448-1,1s0.448,1,1,1s1-0.448,1-1S13.552,6,13,6L13,6z"/><path d="M22,9c-0.552,0-1,0.448-1,1s0.448,1,1,1s1-0.448,1-1S22.552,9,22,9L22,9z"/><path d="M19,9c-0.552,0-1,0.448-1,1s0.448,1,1,1s1-0.448,1-1S19.552,9,19,9L19,9z"/><path d="M13,9c-0.552,0-1,0.448-1,1s0.448,1,1,1s1-0.448,1-1S13.552,9,13,9L13,9z"/><path d="M10,9c-0.552,0-1,0.448-1,1s0.448,1,1,1s1-0.448,1-1S10.552,9,10,9L10,9z"/><path d="M25,12c-0.552,0-1,0.448-1,1s0.448,1,1,1s1-0.448,1-1S25.552,12,25,12L25,12z"/><path d="M22,12c-0.552,0-1,0.448-1,1s0.448,1,1,1s1-0.448,1-1S22.552,12,22,12L22,12z"/><path d="M10,12c-0.552,0-1,0.448-1,1s0.448,1,1,1s1-0.448,1-1S10.552,12,10,12L10,12z"/><path d="M7,12c-0.552,0-1,0.448-1,1s0.448,1,1,1s1-0.448,1-1S7.552,12,7,12L7,12z"/><path d="M25,15c-0.552,0-1,0.448-1,1s0.448,1,1,1s1-0.448,1-1S25.552,15,25,15L25,15z"/><path d="M16,15c-0.552,0-1,0.448-1,1s0.448,1,1,1s1-0.448,1-1S16.552,15,16,15L16,15z"/><path d="M7,15c-0.552,0-1,0.448-1,1s0.448,1,1,1s1-0.448,1-1S7.552,15,7,15L7,15z"/><path d="M4,15c-0.552,0-1,0.448-1,1s0.448,1,1,1s1-0.448,1-1S4.552,15,4,15L4,15z"/><path d="M19,18c-0.552,0-1,0.448-1,1s0.448,1,1,1s1-0.448,1-1S19.552,18,19,18L19,18z"/><path d="M16,18c-0.552,0-1,0.448-1,1s0.448,1,1,1s1-0.448,1-1S16.552,18,16,18L16,18z"/><path d="M13,18c-0.552,0-1,0.448-1,1s0.448,1,1,1s1-0.448,1-1S13.552,18,13,18L13,18z"/><path d="M4,18c-0.552,0-1,0.448-1,1s0.448,1,1,1s1-0.448,1-1S4.552,18,4,18L4,18z"/><path d="M22,21c-0.552,0-1,0.448-1,1s0.448,1,1,1s1-0.448,1-1S22.552,21,22,21L22,21z"/><path d="M19,21c-0.552,0-1,0.448-1,1s0.448,1,1,1s1-0.448,1-1S19.552,21,19,21L19,21z"/><path d="M13,21c-0.552,0-1,0.448-1,1s0.448,1,1,1s1-0.448,1-1S13.552,21,13,21L13,21z"/><path d="M10,21c-0.552,0-1,0.448-1,1s0.448,1,1,1s1-0.448,1-1S10.552,21,10,21L10,21z"/><path d="M25,24c-0.552,0-1,0.448-1,1s0.448,1,1,1s1-0.448,1-1S25.552,24,25,24L25,24z"/><path d="M4,30c-0.552,0-1,0.448-1,1s0.448,1,1,1s1-0.448,1-1S4.552,30,4,30L4,30z"/><path d="M28,30c-0.552,0-1,0.448-1,1s0.448,1,1,1s1-0.448,1-1S28.552,30,28,30L28,30z"/><path d="M28,15c-0.552,0-1,0.448-1,1s0.448,1,1,1s1-0.448,1-1S28.552,15,28,15L28,15z"/><path d="M28,18c-0.552,0-1,0.448-1,1s0.448,1,1,1s1-0.448,1-1S28.552,18,28,18L28,18z"/><path d="M22,24c-0.552,0-1,0.448-1,1s0.448,1,1,1s1-0.448,1-1S22.552,24,22,24L22,24z"/><path d="M10,24c-0.552,0-1,0.448-1,1s0.448,1,1,1s1-0.448,1-1S10.552,24,10,24L10,24z"/><path d="M7,24c-0.552,0-1,0.448-1,1s0.448,1,1,1s1-0.448,1-1S7.552,24,7,24L7,24z"/><path d="M25,27c-0.552,0-1,0.448-1,1s0.448,1,1,1s1-0.448,1-1S25.552,27,25,27L25,27z"/><path d="M28,27c-0.552,0-1,0.448-1,1s0.448,1,1,1s1-0.448,1-1S28.552,27,28,27L28,27z"/><path d="M7,27c-0.552,0-1,0.448-1,1s0.448,1,1,1s1-0.448,1-1S7.552,27,7,27L7,27z"/><path d="M4,27c-0.552,0-1,0.448-1,1s0.448,1,1,1s1-0.448,1-1S4.552,27,4,27L4,27z"/></svg>